HIERARCHY
ROOT RootJoint
{
    OFFSET   0.000000   0.000000   0.000000
    CHANNELS 6 Xposition Yposition Zposition Xrotation Yrotation Zrotation
    JOINT pelvis_lowerback
    {
        OFFSET   0.000000   0.093605   0.000000
        CHANNELS 3 Xrotation Yrotation Zrotation
        JOINT lowerback_torso
        {
            OFFSET   0.000000   0.100000   0.000000
            CHANNELS 3 Xrotation Yrotation Zrotation
            JOINT torso_head
            {
                OFFSET   0.000000   0.282350   0.000000
                CHANNELS 3 Xrotation Yrotation Zrotation
                End Site
                {
                    OFFSET   0.000000   0.192650   0.000000
                }
            }
            JOINT rTorso_Clavicle
            {
                OFFSET  -0.001000   0.157500   0.000000
                CHANNELS 3 Xrotation Yrotation Zrotation
                JOINT rShoulder
                {
                    OFFSET  -0.117647   0.000000   0.000000
                    CHANNELS 3 Xrotation Yrotation Zrotation
                    JOINT rElbow
                    {
                        OFFSET  -0.245000   0.000000   0.000000
                        CHANNELS 3 Xrotation Yrotation Zrotation
                        JOINT rWrist
                        {
                            OFFSET  -0.240000   0.000000   0.000000
                            CHANNELS 3 Xrotation Yrotation Zrotation
                            End Site
                            {
                                OFFSET  -0.116353  -0.002500   0.000000
                            }
                        }
                    }
                }
            }
            JOINT lTorso_Clavicle
            {
                OFFSET   0.001000   0.157500   0.000000
                CHANNELS 3 Xrotation Yrotation Zrotation
                JOINT lShoulder
                {
                    OFFSET   0.117647   0.000000   0.000000
                    CHANNELS 3 Xrotation Yrotation Zrotation
                    JOINT lElbow
                    {
                        OFFSET   0.245000   0.000000   0.000000
                        CHANNELS 3 Xrotation Yrotation Zrotation
                        JOINT lWrist
                        {
                            OFFSET   0.240000   0.000000   0.000000
                            CHANNELS 3 Xrotation Yrotation Zrotation
                            End Site
                            {
                                OFFSET   0.116353  -0.002500   0.000000
                            }
                        }
                    }
                }
            }
        }
    }
    JOINT rHip
    {
        OFFSET  -0.100000  -0.051395   0.000000
        CHANNELS 3 Xrotation Yrotation Zrotation
        JOINT rKnee
        {
            OFFSET   0.000000  -0.410000   0.000000
            CHANNELS 3 Xrotation Yrotation Zrotation
            JOINT rAnkle
            {
                OFFSET   0.000000  -0.390000   0.000000
                CHANNELS 3 Xrotation Yrotation Zrotation
                JOINT rToeJoint
                {
                    OFFSET   0.000000  -0.050000   0.130000
                    CHANNELS 3 Xrotation Yrotation Zrotation
                    End Site
                    {
                        OFFSET  -0.010000   0.002000   0.060000
                    }
                }
            }
        }
    }
    JOINT lHip
    {
        OFFSET   0.100000  -0.051395   0.000000
        CHANNELS 3 Xrotation Yrotation Zrotation
        JOINT lKnee
        {
            OFFSET   0.000000  -0.410000   0.000000
            CHANNELS 3 Xrotation Yrotation Zrotation
            JOINT lAnkle
            {
                OFFSET   0.000000  -0.390000   0.000000
                CHANNELS 3 Xrotation Yrotation Zrotation
                JOINT lToeJoint
                {
                    OFFSET   0.000000  -0.050000   0.130000
                    CHANNELS 3 Xrotation Yrotation Zrotation
                    End Site
                    {
                        OFFSET   0.010000   0.002000   0.060000
                    }
                }
            }
        }
    }
}
MOTION
Frames: 10
Frame Time:   0.008333
 -2.540272   0.906785   5.921508  -9.000985  -5.080785  -1.303117  11.448403   4.289651  -1.400626   5.716864   0.390428   0.130897  -0.115518  -1.497805   0.734722   2.424915  10.229546   7.518408   8.044153  21.073958  40.726295   0.000386  21.683933   0.000079  13.488151   2.620956  -0.381485   1.829871  -5.885449  -7.455330   9.853360 -15.473618 -47.667972  -0.000479 -16.292361  -0.001494   9.902015  -1.900435  -3.431631  14.816956  -1.504256   3.331553   8.001174   0.000346  -0.000337 -13.318199  -1.420506  -2.653849  -0.911384   0.000000   0.000001 -11.375614  -2.252803   2.954700  16.239143  -0.000736   0.003324  -5.240710   6.854873   0.830538  -0.902456   0.000032  -0.000279
 -2.539259   0.906377   5.925777  -8.977641  -5.250426  -1.289852  11.396350   4.292348  -1.470129   5.739285   0.383440   0.129861  -0.157320  -1.430331   0.728751   2.469737  10.150303   7.635969   8.234799  20.899177  40.892469   0.000040  21.586584  -0.000090  13.488933   2.690436  -0.387269   1.854119  -5.902181  -7.470558   9.845055 -15.427432 -47.627905  -0.000378 -16.136354  -0.001375   9.901429  -1.893303  -3.477613  14.975711  -1.386414   3.170197   8.175485   0.000433  -0.000374 -13.580366  -1.382303  -2.535215  -1.056063   0.000000   0.000001 -11.190982  -2.197290   2.875912  16.166232  -0.000638   0.002752  -4.925188   6.867192   0.925630  -0.839718  -0.000009  -0.000299
 -2.538121   0.905548   5.930101  -8.941408  -5.431653  -1.188942  11.327680   4.296151  -1.600571   5.749583   0.371598   0.094395  -0.198017  -1.365219   0.717732   2.534998  10.055271   7.730322   8.429779  20.722851  41.058197  -0.000213  21.488591  -0.000229  13.488688   2.729082  -0.348304   1.879167  -5.909278  -7.449140   9.841782 -15.378667 -47.577952  -0.000239 -15.991124  -0.001240   9.900545  -1.893081  -3.517632  15.110752  -1.274034   2.905032   8.440207   0.000623  -0.000449 -13.496305  -1.352730  -2.401034  -3.925522  -0.000236  -0.000466 -11.021604  -2.133575   2.705938  16.129772  -0.000536   0.002255  -4.629669   6.879802   1.013945  -0.784371  -0.000034  -0.000316
 -2.537051   0.905066   5.934495  -8.915385  -5.557542  -1.201280  11.259008   4.281646  -1.637591   5.767615   0.346969   0.098381  -0.241043  -1.304161   0.709593   2.608400   9.955027   7.841671   8.624447  20.543899  41.208358  -0.000443  21.385259  -0.000354  13.488488   2.710249  -0.311326   1.899813  -5.919173  -7.463202   9.836395 -15.333462 -47.532287  -0.000166 -15.852252  -0.001132   9.901792  -1.871814  -3.521796  15.286453  -1.176293   2.775860   8.621146   0.000668  -0.000446 -13.868367  -1.326391  -2.280949  -3.526206  -0.000199  -0.000372 -10.824843  -2.082589   2.650546  16.097879  -0.000452   0.001833  -4.352284   6.891663   1.096554  -0.722341  -0.000056  -0.000304
 -2.535951   0.904762   5.938917  -8.878042  -5.681958  -1.219684  11.186367   4.264829  -1.681884   5.781374   0.318924   0.107437  -0.282050  -1.247018   0.703968   2.686235   9.854782   7.951910   8.810812  20.374953  41.359709  -0.000609  21.287335  -0.000444  13.487840   2.679298  -0.253953   1.920046  -5.927007  -7.472642   9.831577 -15.291441 -47.491653  -0.000122 -15.723445  -0.001045   9.902754  -1.854019  -3.529247  15.439088  -1.087794   2.651159   8.807268   0.000710  -0.000460 -14.107350  -1.304076  -2.155350  -3.404449  -0.000161  -0.000305 -10.628067  -2.031880   2.593323  16.072196  -0.000382   0.001489  -4.093222   6.903933   1.173880  -0.664537  -0.000065  -0.000292
 -2.534803   0.904533   5.943350  -8.828299  -5.805566  -1.231450  11.112189   4.244663  -1.734947   5.789767   0.287698   0.111695  -0.320973  -1.193775   0.697799   2.764052   9.756487   8.054569   8.987810  20.215922  41.505985  -0.000712  21.195507  -0.000504  13.487086   2.648227  -0.183302   1.938715  -5.933780  -7.474573   9.827226 -15.251995 -47.451998  -0.000092 -15.603846  -0.000973   9.903372  -1.841065  -3.538650  15.573866  -1.000996   2.515881   8.992873   0.000751  -0.000471 -14.281754  -1.279914  -2.024029  -3.439064  -0.000128  -0.000243 -10.438989  -1.983110   2.522535  16.053514  -0.000322   0.001209  -3.851484   6.915632   1.245928  -0.612999  -0.000065  -0.000279
 -2.533613   0.904332   5.947789  -8.767697  -5.927614  -1.241189  11.037966   4.222102  -1.790542   5.793566   0.254335   0.112127  -0.357731  -1.144172   0.691123   2.839222   9.661379   8.147798   9.155138  20.066036  41.643262  -0.000764  21.109301  -0.000540  13.486330   2.616988  -0.109295   1.955187  -5.940313  -7.471108   9.822886 -15.215113 -47.412504  -0.000070 -15.492649  -0.000911   9.903849  -1.831089  -3.545833  15.695761  -0.918411   2.376286   9.175480   0.000786  -0.000483 -14.414821  -1.257000  -1.888625  -3.582480  -0.000101  -0.000191 -10.258354  -1.936815   2.446089  16.039818  -0.000270   0.000980  -3.625902   6.926678   1.313046  -0.566847  -0.000059  -0.000265
 -2.532333   0.904235   5.952318  -8.705671  -6.034672  -1.214816  10.959494   4.195883  -1.883537   5.795212   0.245768   0.103048  -0.414337  -1.099078   0.710925   2.862217   9.540606   8.262184   9.342762  19.854928  41.826365  -0.001137  20.882616  -0.000892  13.478439   2.689786  -0.095875   1.975630  -5.933125  -7.481664   9.762090 -15.151195 -47.339909  -0.000027 -15.419817  -0.000745   9.903712  -1.829160  -3.557547  15.756845  -0.856889   2.194974   9.481847   0.000966  -0.000553 -14.527238  -1.239611  -1.742430  -3.899470  -0.000077  -0.000153 -10.054648  -1.889842   2.312581  16.023366  -0.000233   0.000799  -3.454297   6.969741   1.453944  -0.455060  -0.000115  -0.000278
 -2.530989   0.904180   5.956926  -8.641229  -6.118807  -1.184332  10.875148   4.162853  -1.975934   5.794119   0.228264   0.091996  -0.470213  -1.055780   0.729222   2.904732   9.409035   8.369446   9.534888  19.642143  42.002926  -0.001419  20.659167  -0.001152  13.468726   2.703939  -0.059199   1.992130  -5.923266  -7.484472   9.703959 -15.090569 -47.265974   0.000010 -15.353694  -0.000604   9.903067  -1.842051  -3.546455  15.808157  -0.808309   2.010834   9.809375   0.001152  -0.000596 -14.596012  -1.233803  -1.591193  -4.338471  -0.000058  -0.000123  -9.842312  -1.843803   2.165355  16.017173  -0.000194   0.000644  -3.294715   7.010438   1.585432  -0.356556  -0.000137  -0.000268
 -2.529592   0.904128   5.961582  -8.569783  -6.191145  -1.155849  10.785755   4.124849  -2.064382   5.788535   0.202864   0.080959  -0.523990  -1.015017   0.745573   2.956454   9.273939   8.466778   9.724033  19.435082  42.169824  -0.001593  20.445767  -0.001337  13.459339   2.688743  -0.005728   2.007191  -5.912334  -7.480116   9.650257 -15.032769 -47.192744   0.000040 -15.292161  -0.000494   9.902464  -1.857675  -3.525280  15.854489  -0.765675   1.828479  10.135722   0.001313  -0.000621 -14.633909  -1.232524  -1.435891  -4.852862  -0.000043  -0.000099  -9.629941  -1.799123   2.016831  16.018391  -0.000154   0.000514  -3.145724   7.048680   1.707961  -0.266866  -0.000140  -0.000250
